<mxfile host="app.diagrams.net" modified="2023-03-31T07:31:24.018Z" agent="Mozilla/5.0 (X11; Linux x86_64) AppleWebKit/537.36 (KHTML, like Gecko) Chrome/104.0.0.0 Safari/537.36" version="21.1.2" etag="0qdA4KbKCduBEkFwbM26" type="github">
  <diagram name="Page-1" id="4L6XLesUkfjKGcpvbt0A">
    <mxGraphModel>
      <root>
        <mxCell id="0" />
        <mxCell id="1" parent="0" />
      </root>
    </mxGraphModel>
  </diagram>
</mxfile>
